<svg xmlns="http://www.w3.org/2000/svg" viewBox="0 0 512 512" fill="none">
  <defs>
    <!-- Deep black base -->
    <radialGradient id="bg" cx="0" cy="0" r="1" gradientUnits="userSpaceOnUse"
      gradientTransform="translate(170 145) rotate(55) scale(560)">
      <stop offset="0" stop-color="#0E1324"/>
      <stop offset="0.45" stop-color="#060811"/>
      <stop offset="1" stop-color="#03040A"/>
    </radialGradient>

    <!-- Subtle iridescent rim (controlled, premium) -->
    <linearGradient id="rim" x1="88" y1="72" x2="440" y2="456" gradientUnits="userSpaceOnUse">
      <stop offset="0" stop-color="#C6B8FF"/>
      <stop offset="0.33" stop-color="#78E8FF"/>
      <stop offset="0.62" stop-color="#86FFD6"/>
      <stop offset="1" stop-color="#C78CFF"/>
    </linearGradient>

    <!-- Inner glass fill -->
    <radialGradient id="glass" cx="0" cy="0" r="1" gradientUnits="userSpaceOnUse"
      gradientTransform="translate(210 190) rotate(52) scale(440)">
      <stop offset="0" stop-color="#1A2547" stop-opacity="0.55"/>
      <stop offset="0.55" stop-color="#0B1022" stop-opacity="0.68"/>
      <stop offset="1" stop-color="#050612" stop-opacity="0.86"/>
    </radialGradient>

    <!-- Inner edge sheen -->
    <linearGradient id="sheen" x1="118" y1="118" x2="412" y2="412" gradientUnits="userSpaceOnUse">
      <stop offset="0" stop-color="#FFFFFF" stop-opacity="0.18"/>
      <stop offset="0.55" stop-color="#9FE7FF" stop-opacity="0.05"/>
      <stop offset="1" stop-color="#FFFFFF" stop-opacity="0.10"/>
    </linearGradient>

    <!-- Specular highlight -->
    <linearGradient id="spec" x1="120" y1="120" x2="320" y2="280" gradientUnits="userSpaceOnUse">
      <stop offset="0" stop-color="#FFFFFF" stop-opacity="0.55"/>
      <stop offset="1" stop-color="#FFFFFF" stop-opacity="0"/>
    </linearGradient>

    <!-- Mark (etched glass) -->
    <linearGradient id="mark" x1="190" y1="170" x2="346" y2="352" gradientUnits="userSpaceOnUse">
      <stop offset="0" stop-color="#F4FFFF" stop-opacity="0.92"/>
      <stop offset="0.55" stop-color="#A8EEFF" stop-opacity="0.90"/>
      <stop offset="1" stop-color="#D8CCFF" stop-opacity="0.90"/>
    </linearGradient>

    <filter id="outer" x="-30%" y="-30%" width="160%" height="160%">
      <feDropShadow dx="0" dy="18" stdDeviation="18" flood-color="#000000" flood-opacity="0.55"/>
      <feDropShadow dx="0" dy="0" stdDeviation="9" flood-color="#7FEAFF" flood-opacity="0.12"/>
      <feDropShadow dx="0" dy="0" stdDeviation="12" flood-color="#B38CFF" flood-opacity="0.08"/>
    </filter>

    <filter id="blur10" x="-30%" y="-30%" width="160%" height="160%">
      <feGaussianBlur stdDeviation="10"/>
    </filter>

    <filter id="markGlow" x="-40%" y="-40%" width="180%" height="180%">
      <feDropShadow dx="0" dy="0" stdDeviation="7" flood-color="#7FEAFF" flood-opacity="0.16"/>
      <feDropShadow dx="0" dy="0" stdDeviation="9" flood-color="#B38CFF" flood-opacity="0.10"/>
    </filter>

    <!-- Micro grain (very subtle) -->
    <filter id="grain" x="-20%" y="-20%" width="140%" height="140%">
      <feTurbulence type="fractalNoise" baseFrequency="0.85" numOctaves="2" seed="9" result="n"/>
      <feColorMatrix type="matrix" values="
        1 0 0 0 0
        0 1 0 0 0
        0 0 1 0 0
        0 0 0 0.06 0" />
    </filter>
  </defs>

  <!-- Tile -->
  <rect x="28" y="28" width="456" height="456" rx="124" fill="url(#bg)"/>

  <!-- Rim -->
  <rect x="38" y="38" width="436" height="436" rx="118"
        stroke="url(#rim)" stroke-width="16" opacity="0.95" filter="url(#outer)"/>
  <rect x="46" y="46" width="420" height="420" rx="112"
        stroke="#FFFFFF" stroke-opacity="0.06" stroke-width="2"/>

  <!-- Glass body -->
  <rect x="62" y="62" width="388" height="388" rx="104" fill="url(#glass)"/>
  <rect x="70" y="70" width="372" height="372" rx="98" stroke="url(#sheen)" stroke-width="2"/>

  <!-- Specular highlight (top-left, controlled) -->
  <path d="M116 168
           C136 114 186 92 248 90
           C296 88 340 110 370 148
           C320 132 254 134 202 154
           C164 170 136 196 116 224 Z"
        fill="url(#spec)" opacity="0.70" filter="url(#blur10)"/>

  <!-- Subtle bottom-right bloom -->
  <path d="M300 420
           C360 404 404 360 420 300
           C426 332 420 366 402 396
           C374 424 336 432 300 426 Z"
        fill="#B38CFF" fill-opacity="0.08" filter="url(#blur10)"/>

  <!-- Grain overlay -->
  <rect x="62" y="62" width="388" height="388" rx="104" filter="url(#grain)" opacity="0.55"/>

  <!-- Center mark: Glass + Prompt (lens + caret + cursor) -->
  <g filter="url(#markGlow)">
    <!-- lens -->
    <circle cx="242" cy="250" r="78" stroke="url(#mark)" stroke-width="20" stroke-linecap="round"/>
    <!-- handle -->
    <path d="M298 306 L338 346" stroke="url(#mark)" stroke-width="20" stroke-linecap="round"/>
    <!-- prompt caret -->
    <path d="M220 222 L262 250 L220 278"
          stroke="url(#mark)" stroke-width="16" stroke-linecap="round" stroke-linejoin="round"/>
    <!-- cursor block -->
    <rect x="270" y="262" width="36" height="22" rx="8" fill="url(#mark)"/>
  </g>
</svg>
