<svg xmlns="http://www.w3.org/2000/svg" viewBox="0 0 512 512" fill="none">
  <defs>
    <radialGradient id="bg" cx="0" cy="0" r="1" gradientUnits="userSpaceOnUse"
      gradientTransform="translate(170 145) rotate(55) scale(560)">
      <stop offset="0" stop-color="#081018"/>
      <stop offset="0.55" stop-color="#020406"/>
      <stop offset="1" stop-color="#000000"/>
    </radialGradient>

    <linearGradient id="rim" x1="88" y1="72" x2="440" y2="456" gradientUnits="userSpaceOnUse">
      <stop offset="0" stop-color="#FFFFFF" stop-opacity="0.10"/>
      <stop offset="0.22" stop-color="#00D4FF" stop-opacity="0.95"/>
      <stop offset="0.78" stop-color="#00D4FF" stop-opacity="0.30"/>
      <stop offset="1" stop-color="#FFFFFF" stop-opacity="0.08"/>
    </linearGradient>

    <radialGradient id="glass" cx="0" cy="0" r="1" gradientUnits="userSpaceOnUse"
      gradientTransform="translate(210 190) rotate(52) scale(440)">
      <stop offset="0" stop-color="#151A1F" stop-opacity="0.62"/>
      <stop offset="0.55" stop-color="#070A0D" stop-opacity="0.80"/>
      <stop offset="1" stop-color="#000000" stop-opacity="0.92"/>
    </radialGradient>

    <linearGradient id="sheen" x1="118" y1="118" x2="412" y2="412" gradientUnits="userSpaceOnUse">
      <stop offset="0" stop-color="#FFFFFF" stop-opacity="0.16"/>
      <stop offset="0.60" stop-color="#FFFFFF" stop-opacity="0.04"/>
      <stop offset="1" stop-color="#FFFFFF" stop-opacity="0.10"/>
    </linearGradient>

    <linearGradient id="spec" x1="120" y1="120" x2="320" y2="280" gradientUnits="userSpaceOnUse">
      <stop offset="0" stop-color="#FFFFFF" stop-opacity="0.55"/>
      <stop offset="1" stop-color="#FFFFFF" stop-opacity="0"/>
    </linearGradient>

    <linearGradient id="mark" x1="190" y1="170" x2="346" y2="352" gradientUnits="userSpaceOnUse">
      <stop offset="0" stop-color="#FFFFFF" stop-opacity="0.95"/>
      <stop offset="0.60" stop-color="#DADADA" stop-opacity="0.88"/>
      <stop offset="1" stop-color="#00D4FF" stop-opacity="0.18"/>
    </linearGradient>

    <filter id="outer" x="-30%" y="-30%" width="160%" height="160%">
      <feDropShadow dx="0" dy="18" stdDeviation="18" flood-color="#000000" flood-opacity="0.62"/>
      <feDropShadow dx="0" dy="0" stdDeviation="10" flood-color="#00D4FF" flood-opacity="0.14"/>
    </filter>

    <filter id="blur10" x="-30%" y="-30%" width="160%" height="160%">
      <feGaussianBlur stdDeviation="10"/>
    </filter>

    <filter id="markGlow" x="-40%" y="-40%" width="180%" height="180%">
      <feDropShadow dx="0" dy="0" stdDeviation="7" flood-color="#FFFFFF" flood-opacity="0.10"/>
      <feDropShadow dx="0" dy="0" stdDeviation="10" flood-color="#00D4FF" flood-opacity="0.12"/>
    </filter>

    <filter id="grain" x="-20%" y="-20%" width="140%" height="140%">
      <feTurbulence type="fractalNoise" baseFrequency="0.85" numOctaves="2" seed="9" result="n"/>
      <feColorMatrix type="matrix" values="
        1 0 0 0 0
        0 1 0 0 0
        0 0 1 0 0
        0 0 0 0.05 0" />
    </filter>
  </defs>

  <rect x="28" y="28" width="456" height="456" rx="124" fill="url(#bg)"/>
  <rect x="38" y="38" width="436" height="436" rx="118" stroke="url(#rim)" stroke-width="16" opacity="0.95" filter="url(#outer)"/>
  <rect x="46" y="46" width="420" height="420" rx="112" stroke="#FFFFFF" stroke-opacity="0.05" stroke-width="2"/>

  <rect x="62" y="62" width="388" height="388" rx="104" fill="url(#glass)"/>
  <rect x="70" y="70" width="372" height="372" rx="98" stroke="url(#sheen)" stroke-width="2"/>

  <path d="M116 168 C136 114 186 92 248 90 C296 88 340 110 370 148
           C320 132 254 134 202 154 C164 170 136 196 116 224 Z"
        fill="url(#spec)" opacity="0.66" filter="url(#blur10)"/>

  <path d="M300 420 C360 404 404 360 420 300 C426 332 420 366 402 396
           C374 424 336 432 300 426 Z"
        fill="#00D4FF" fill-opacity="0.06" filter="url(#blur10)"/>

  <rect x="62" y="62" width="388" height="388" rx="104" filter="url(#grain)" opacity="0.55"/>

  <g filter="url(#markGlow)">
    <circle cx="242" cy="250" r="78" stroke="url(#mark)" stroke-width="20" stroke-linecap="round"/>
    <path d="M298 306 L338 346" stroke="url(#mark)" stroke-width="20" stroke-linecap="round"/>
    <path d="M220 222 L262 250 L220 278" stroke="url(#mark)" stroke-width="16" stroke-linecap="round" stroke-linejoin="round"/>
    <rect x="270" y="262" width="36" height="22" rx="8" fill="url(#mark)"/>
  </g>
</svg>
